<svg version="1" xmlns="http://www.w3.org/2000/svg" width="418.667" height="418.667" viewBox="0 0 314.000000 314.000000"><path d="M157.2 72.2l-31.3 31.3-13.7-14.3c-17.6-18.3-16.6-18.1-30.9-4.4C72.4 93.3 71 95.1 71 97.9c0 2.9 2.7 6 24.6 28.4 13.5 13.9 25.8 25.8 27.4 26.6 2.3 1.1 3.4 1.2 5.7.2 1.6-.6 21.9-20.2 45.1-43.4C210.6 72.8 216 67.1 216 64.5c0-2.4-2-5.1-9.8-13.3-14.7-15.4-10.6-17.2-49 21zM253.4 67.9c-.2.2-.4 3.2-.4 6.7v6.2l8 .4c9 .4 10.6 1.4 12 7.4.5 2.1 1 14.5 1 27.4 0 22.5.1 23.7 2.4 28.5 2.1 4.5 7.3 10.3 10.8 11.9 1.1.5 1.1.7 0 1.2-3.5 1.6-8.7 7.4-10.8 11.9-2.3 4.8-2.4 6-2.4 28.5 0 12.9-.5 25.3-1 27.5-1.4 6-3.9 7.5-12.7 7.5h-7.4l.3 6.7.3 6.8 6.3.3c10.5.5 17-1.4 21.8-6.2 6.6-6.5 7.4-10.8 7.4-37.6 0-18.2.3-23.6 1.6-27.4 1.8-5.1 6.2-9.3 11.6-11.2 3.3-1.1 3.3-1.1 3.3-7.5v-6.3l-3.4-1c-4.8-1.4-10.7-7.3-12-12.1-.6-2.4-1.1-13.2-1.1-26.6 0-17.4-.4-23.7-1.5-27.7-1.6-5.3-6-11.3-9.9-13.5-2-1.1-23.3-2.7-24.2-1.8zM35.5 69.4c-4 1.7-9.1 7.6-10.6 12.3-.7 2.3-1.4 13.8-1.8 29.8-.5 21.5-.9 26.5-2.3 29-2.3 4.3-5.8 7.3-10.3 8.8l-4 1.4-.3 6.5-.3 6.5 3.2.7c4.2.8 9.4 4.8 11.6 8.9 1.5 2.7 1.9 7.1 2.4 29.2.4 16 1.1 27.5 1.8 29.8 1.5 4.8 6.6 10.6 10.9 12.4 3.9 1.6 17.8 2.9 21.6 1.9 2.6-.6 2.7-.9 2.4-6.9l-.3-6.2-8.2-.5c-9.5-.6-11.1-1.6-12.4-8.2-.4-2.3-.8-14.7-.9-27.3 0-21.9-.1-23.2-2.4-28-2.1-4.5-7.3-10.3-10.8-11.9-1.1-.5-1.1-.7 0-1.2 3.5-1.6 8.7-7.4 10.8-11.9 2.3-4.8 2.4-6.1 2.4-28 .1-12.7.5-25 .9-27.3 1.3-6.5 2.8-7.5 12.3-8.2l8.3-.5.3-6.3.3-6.2H49.3c-6.6.1-12 .6-13.8 1.4z"/><path d="M179.3 139.2L131 187.5l-23.3-23.3C86.9 143.5 84.1 141 81.2 141c-5 0-8 2-17 11.4-7.9 8.2-8.2 8.7-8.2 13.3v4.7l35.3 35.3 35.2 35.3h9l58.8-58.8c32.4-32.3 59.5-59.9 60.3-61.4.8-1.5 1.4-4.3 1.4-6.4 0-3.3-1-4.6-9.8-13.5-9.4-9.6-9.9-9.9-14.2-9.9h-4.5l-48.2 48.2z"/></svg>